<svg width="600" height="600" viewBox="0 0 600 600" fill="none" xmlns="http://www.w3.org/2000/svg">
<style>
    path{
      fill: #121212;
    }
    @media (prefers-color-scheme: dark) {
      path {
        fill: #fefefe;
      }
    }
  </style>
<path d="M50 121.5C50 82.0116 82.0116 50 121.5 50H250C263.807 50 275 61.1929 275 75V153C275 169.569 261.569 183 245 183H70C58.9543 183 50 174.046 50 163V121.5Z" />
<path d="M325 70C325 58.9543 333.954 50 345 50H478.5C517.988 50 550 82.0116 550 121.5V163C550 174.046 541.046 183 530 183H355C338.431 183 325 169.569 325 153V70Z"/>
<path d="M50 253C50 241.954 58.9543 233 70 233H245C261.569 233 275 246.431 275 263V525C275 538.807 263.807 550 250 550H167.5C102.607 550 50 497.393 50 432.5V253Z"/>
<path d="M325 263C325 246.431 338.431 233 355 233H530C541.046 233 550 241.954 550 253V432.5C550 497.393 497.393 550 432.5 550H350C336.193 550 325 538.807 325 525V263Z"/>
</svg>