<svg width="462" height="461" viewBox="0 0 462 461" fill="none" xmlns="http://www.w3.org/2000/svg">
<style>
    path{
      fill: #121212;
    }
    @media (prefers-color-scheme: dark) {
      path {
        fill: #fefefe;
      }
    }
  </style>
<path d="M71.5 0C32.0117 0 0 32.0117 0 71.5V102.626C0 113.672 8.95428 122.626 20 122.626H177.45C194.019 122.626 207.45 109.195 207.45 92.626V25C207.45 11.1929 196.257 0 182.45 0H71.5Z" fill="#212121"/>
<path d="M273.55 0C262.504 0 253.55 8.95431 253.55 20V93C253.55 109.569 266.982 123 283.55 123H441.55C452.596 123 461.55 114.046 461.55 103V71.5C461.55 32.0116 429.538 0 390.05 0H273.55Z" fill="#212121"/>
<path d="M0 188.726C0 177.68 8.95431 168.726 20 168.726H177.45C194.019 168.726 207.45 182.157 207.45 198.726V402.961C195.912 388.366 178.05 379 158 379C141.655 379 126.763 385.225 115.567 395.433C107.042 370.738 83.5922 353 56 353C54.7313 353 53.4714 353.038 52.2213 353.111C55.3005 345.684 57 337.541 57 329C57 296.23 31.9796 269.303 0 266.282V188.726Z" fill="#212121"/>
<path d="M283.55 168.726C266.981 168.726 253.55 182.157 253.55 198.726V436C253.55 449.807 264.743 461 278.55 461H343.5C408.393 461 461 408.393 461 343.5V188.726C461 177.68 452.046 168.726 441 168.726H283.55Z" fill="#212121"/>
</svg>
